<svg xmlns="http://www.w3.org/2000/svg" viewBox="0 0 400 270" width="400" height="270" role="img" font-family="Arial, Helvetica, sans-serif" fill="none" stroke="#0a1326" stroke-width="3.2" stroke-linecap="round" stroke-linejoin="round"><title>After 10 minutes the heater is switched off and the highest temperature reached is recorded</title><rect width="400" height="270" fill="#ffffff" stroke="none"/><line x1="10" y1="232" x2="390" y2="232" stroke="#0a1326" stroke-width="4"/><rect x="146" y="136" width="138" height="96" fill="#fbf0c8" stroke="#0a1326" stroke-width="2.8" rx="8"/><rect x="160" y="150" width="110" height="82" fill="#c9d3d8" stroke="#0a1326" stroke-width="3" rx="3"/><rect x="182" y="106" width="14" height="80" fill="#e8b96a" stroke="#0a1326" stroke-width="2.6" rx="3"/><rect x="236" y="110" width="8" height="70" fill="#ffffff" stroke="#0a1326" stroke-width="2.4" rx="4"/><circle cx="240" cy="183" r="7" fill="#d0182b" stroke="#0a1326" stroke-width="2.4"/><line x1="240" y1="180" x2="240" y2="131" stroke="#d0182b" stroke-width="4"/><rect x="15" y="188" width="80" height="44" fill="#e3e8ea" stroke="#0a1326" stroke-width="3" rx="5"/><circle cx="33" cy="210" r="9" fill="#ffffff" stroke="#0a1326" stroke-width="2.2"/><line x1="33" y1="210" x2="39" y2="203" stroke="#0a1326" stroke-width="2.2"/><circle cx="75" cy="220" r="4" fill="#aaa" stroke="#0a1326" stroke-width="1.6"/><text x="55" y="249" text-anchor="middle" font-size="15" font-weight="400" fill="#0a1326" stroke="none">power supply</text><path d="M187 106 V72 H42 V188" stroke="#d0182b" stroke-width="3" fill="none"/><path d="M193 106 V80 H62 V188" stroke="#0a1326" stroke-width="3" fill="none"/><rect x="341" y="30" width="8" height="8" fill="#c9d3d8" stroke="#0a1326" stroke-width="2"/><circle cx="345" cy="64" r="26" fill="#ffffff" stroke="#0a1326" stroke-width="3"/><text x="345" y="69" text-anchor="middle" font-size="15" font-weight="700" fill="#0a1326" stroke="none">10:00</text><text x="345" y="112" text-anchor="middle" font-size="16" font-weight="700" fill="#0a1326" stroke="none">10 min</text><text x="20" y="52" text-anchor="start" font-size="17" font-weight="700" fill="#d0182b" stroke="none">switch off</text><text x="392" y="140" text-anchor="end" font-size="16" font-weight="700" fill="#0a1326" stroke="none">θ highest</text><text x="392" y="160" text-anchor="end" font-size="16" font-weight="700" fill="#0a1326" stroke="none">= ___ °C</text></svg>
