<svg xmlns="http://www.w3.org/2000/svg" viewBox="0 0 400 270" width="400" height="270" role="img" font-family="Arial, Helvetica, sans-serif" fill="none" stroke="#0a1326" stroke-width="3.2" stroke-linecap="round" stroke-linejoin="round"><title>The data logger shows the acceleration of the trolley</title><rect width="400" height="270" fill="#ffffff" stroke="none"/><rect x="15" y="190" width="335" height="12" fill="#e8d3a8" stroke="#0a1326" stroke-width="2.8" rx="2"/><line x1="60" y1="202" x2="60" y2="232" stroke="#0a1326" stroke-width="3"/><line x1="320" y1="202" x2="320" y2="232" stroke="#0a1326" stroke-width="3"/><line x1="350" y1="188" x2="358" y2="180" stroke="#0a1326" stroke-width="3"/><circle cx="358" cy="176" r="11" fill="#e3e8ea" stroke="#0a1326" stroke-width="2.8"/><circle cx="358" cy="176" r="2.6" fill="#0a1326" stroke="none"/><rect x="186" y="156" width="70" height="22" fill="#e9d6ae" stroke="#0a1326" stroke-width="3" rx="3"/><circle cx="200" cy="184" r="6" fill="#ffffff" stroke="#0a1326" stroke-width="2.6"/><circle cx="242" cy="184" r="6" fill="#ffffff" stroke="#0a1326" stroke-width="2.6"/><line x1="256" y1="167" x2="358" y2="165" stroke="#0a1326" stroke-width="2.6"/><line x1="369" y1="176" x2="369" y2="206" stroke="#0a1326" stroke-width="2.6"/><path d="M363 206 h12 v8 h-12 Z" stroke="#c9d3d8" stroke-width="2.4" fill="#c9d3d8"/><rect x="355" y="214" width="28" height="8" fill="#c9d3d8" stroke="#0a1326" stroke-width="2.2" rx="1"/><rect x="355" y="222" width="28" height="8" fill="#c9d3d8" stroke="#0a1326" stroke-width="2.2" rx="1"/><rect x="355" y="230" width="28" height="8" fill="#c9d3d8" stroke="#0a1326" stroke-width="2.2" rx="1"/><path d="M160 190 V138 H180 V190" stroke="#0a1326" stroke-width="3" fill="none"/><path d="M252 190 V138 H272 V190" stroke="#0a1326" stroke-width="3" fill="none"/><rect x="214" y="142" width="5" height="14" fill="#d0182b" stroke="#d0182b" stroke-width="1"/><rect x="250" y="22" width="130" height="56" fill="#e3e8ea" stroke="#0a1326" stroke-width="3" rx="6"/><text x="315" y="44" text-anchor="middle" font-size="15" font-weight="700" fill="#0a1326" stroke="none">data logger</text><rect x="262" y="52" width="106" height="20" fill="#e9f7ee" stroke="#0a1326" stroke-width="2" rx="2"/><text x="315" y="67" text-anchor="middle" font-size="14" font-weight="700" fill="#0a1326" stroke="none">a = ___ m/s²</text><path d="M170 138 V40 H250" stroke="#0a1326" stroke-width="2.6" fill="none"/><path d="M262 138 V78" stroke="#0a1326" stroke-width="2.6" fill="none"/><text x="200" y="252" text-anchor="middle" font-size="15" font-weight="400" fill="#0a1326" stroke="none">read the acceleration from the data logger</text></svg>
