<svg xmlns="http://www.w3.org/2000/svg" viewBox="0 0 400 270" width="400" height="270" role="img" font-family="Arial, Helvetica, sans-serif" fill="none" stroke="#0a1326" stroke-width="3.2" stroke-linecap="round" stroke-linejoin="round"><title>A ripple tank with a lamp above it, a white screen below it and a motor with a dipper at one end</title><rect width="400" height="270" fill="#ffffff" stroke="none"/><line x1="10" y1="232" x2="390" y2="232" stroke="#0a1326" stroke-width="4"/><rect x="100" y="90" width="90" height="40" fill="#fff7cc" stroke="#0a1326" stroke-width="3" rx="6"/><circle cx="145" cy="122" r="7" fill="#ffd23f" stroke="#0a1326" stroke-width="2.2"/><text x="145" y="112" text-anchor="middle" font-size="1" font-weight="700" fill="#0a1326" stroke="none"></text><line x1="145" y1="130" x2="70" y2="205" stroke="#e0b400" stroke-width="2" stroke-dasharray="6 5"/><line x1="145" y1="130" x2="220" y2="205" stroke="#e0b400" stroke-width="2" stroke-dasharray="6 5"/><line x1="145" y1="130" x2="145" y2="205" stroke="#e0b400" stroke-width="2" stroke-dasharray="6 5"/><line x1="145" y1="70" x2="145" y2="90" stroke="#0a1326" stroke-width="3"/><line x1="145" y1="70" x2="365" y2="70" stroke="#0a1326" stroke-width="3"/><line x1="365" y1="70" x2="365" y2="232" stroke="#0a1326" stroke-width="4"/><rect x="60" y="180" width="170" height="30" fill="#d9f1f7" stroke="#0b7fa3" stroke-width="3" rx="3"/><rect x="48" y="218" width="194" height="10" fill="#ffffff" stroke="#0a1326" stroke-width="3" rx="2"/><rect x="60" y="164" width="20" height="8" fill="#c9d3d8" stroke="#0a1326" stroke-width="2.6"/><line x1="70" y1="172" x2="70" y2="190" stroke="#0a1326" stroke-width="3"/><text x="145" y="52" text-anchor="middle" font-size="17" font-weight="700" fill="#0a1326" stroke="none">lamp</text><text x="250" y="150" text-anchor="start" font-size="17" font-weight="700" fill="#0a1326" stroke="none">ripple tank</text><line x1="246" y1="156" x2="218.9" y2="183.1" stroke="#d0182b" stroke-width="2.2"/><path d="M214 188 L221.7 185.8 L216.2 180.3 Z" fill="#d0182b" stroke="#d0182b" stroke-width="1"/><text x="270" y="232" text-anchor="middle" font-size="1" font-weight="700" fill="#0a1326" stroke="none"></text><text x="80" y="258" text-anchor="start" font-size="16" font-weight="700" fill="#0a1326" stroke="none">white screen below</text><text x="40" y="150" text-anchor="start" font-size="16" font-weight="700" fill="#0a1326" stroke="none">motor</text><line x1="50" y1="156" x2="61.9" y2="162.6" stroke="#d0182b" stroke-width="2.2"/><path d="M68 166 L63.8 159.2 L60 166 Z" fill="#d0182b" stroke="#d0182b" stroke-width="1"/></svg>
