<svg xmlns="http://www.w3.org/2000/svg" viewBox="0 0 400 270" width="400" height="270" role="img" font-family="Arial, Helvetica, sans-serif" fill="none" stroke="#0a1326" stroke-width="3.2" stroke-linecap="round" stroke-linejoin="round"><title>Hot water is poured from a kettle into a Leslie cube, with its lid beside it</title><rect width="400" height="270" fill="#ffffff" stroke="none"/><line x1="10" y1="232" x2="390" y2="232" stroke="#0a1326" stroke-width="4"/><path d="M150 130 L184 106.2 L274 106.2 L240 130 Z" stroke="#e6edf0" stroke-width="#0a1326" fill="2.8"/><path d="M240 130 L274 106.2 L274 208.2 L240 232 Z" stroke="#aebbc1" stroke-width="#0a1326" fill="2.8"/><rect x="150" y="130" width="90" height="102" fill="#dfe6e9" stroke="#0a1326" stroke-width="2.8"/><rect x="40" y="70" width="56" height="46" fill="#e3e8ea" stroke="#0a1326" stroke-width="3" rx="10"/><path d="M96 84 L118 68 L120 74 L98 98" stroke="#e3e8ea" stroke-width="#0a1326" fill="2.6"/><path d="M50 70 Q68 44 86 70" stroke="#0a1326" stroke-width="3" fill="none"/><path d="M120 66 Q150 76 170 118" stroke="#7fc4dd" stroke-width="5" fill="none"/><line x1="160" y1="100" x2="168.2" y2="115" stroke="#0b7fa3" stroke-width="2.4"/><path d="M172 122 L172 112.9 L164.3 117.1 Z" fill="#0b7fa3" stroke="#0b7fa3" stroke-width="1"/><text x="100" y="150" text-anchor="middle" font-size="17" font-weight="700" fill="#0a1326" stroke="none">hot water</text><rect x="268" y="186" width="76" height="12" fill="#b9c4c9" stroke="#0a1326" stroke-width="2.6" rx="2"/><text x="306" y="218" text-anchor="middle" font-size="17" font-weight="700" fill="#0a1326" stroke="none">lid</text></svg>
