<svg xmlns="http://www.w3.org/2000/svg" viewBox="0 0 400 270" width="400" height="270" role="img" font-family="Arial, Helvetica, sans-serif" fill="none" stroke="#0a1326" stroke-width="3.2" stroke-linecap="round" stroke-linejoin="round"><title>A top view of the Leslie cube with an infrared detector held 10 centimetres from face A and the reading recorded</title><rect width="400" height="270" fill="#ffffff" stroke="none"/><rect x="205" y="83" width="90" height="90" fill="#dfe6e9" stroke="#0a1326" stroke-width="3" rx="2"/><circle cx="187" cy="128" r="14" fill="#ffd23f" stroke="#0a1326" stroke-width="2.4"/><text x="187" y="134" text-anchor="middle" font-size="17" font-weight="700" fill="#0a1326" stroke="none">A</text><circle cx="250" cy="65" r="14" fill="#ffd23f" stroke="#0a1326" stroke-width="2.4"/><text x="250" y="71" text-anchor="middle" font-size="17" font-weight="700" fill="#0a1326" stroke="none">B</text><circle cx="313" cy="128" r="14" fill="#ffd23f" stroke="#0a1326" stroke-width="2.4"/><text x="313" y="134" text-anchor="middle" font-size="17" font-weight="700" fill="#0a1326" stroke="none">C</text><circle cx="250" cy="191" r="14" fill="#ffd23f" stroke="#0a1326" stroke-width="2.4"/><text x="250" y="197" text-anchor="middle" font-size="17" font-weight="700" fill="#0a1326" stroke="none">D</text><rect x="30" y="112" width="56" height="32" fill="#e3e8ea" stroke="#0b7fa3" stroke-width="3" rx="4"/><path d="M86 120 L108 124 V132 L86 136 Z" stroke="#c9d3d8" stroke-width="#0b7fa3" fill="2.4"/><text x="58" y="134" text-anchor="middle" font-size="15" font-weight="700" fill="#0a1326" stroke="none">IR</text><line x1="112" y1="98" x2="192" y2="98" stroke="#d0182b" stroke-width="2.6"/><path d="M200 98 L192 93.6 L192 102.4 Z" fill="#d0182b" stroke="#d0182b" stroke-width="1"/><line x1="200" y1="98" x2="120" y2="98" stroke="#d0182b" stroke-width="2.6"/><path d="M112 98 L120 102.4 L120 93.6 Z" fill="#d0182b" stroke="#d0182b" stroke-width="1"/><text x="156" y="84" text-anchor="middle" font-size="17" font-weight="700" fill="#d0182b" stroke="none">10 cm</text><text x="58" y="172" text-anchor="middle" font-size="16" font-weight="700" fill="#0a1326" stroke="none">detector</text><rect x="20" y="192" width="126" height="26" fill="#ffffff" stroke="#0a1326" stroke-width="2.4" rx="4"/><text x="83" y="211" text-anchor="middle" font-size="16" font-weight="700" fill="#0a1326" stroke="none">reading = ___</text><text x="250" y="232" text-anchor="middle" font-size="14" font-weight="400" fill="#0a1326" stroke="none">A matt black   B shiny black</text><text x="250" y="252" text-anchor="middle" font-size="14" font-weight="400" fill="#0a1326" stroke="none">C matt white   D shiny silver</text></svg>
