<svg xmlns="http://www.w3.org/2000/svg" viewBox="0 0 400 270" width="400" height="270" role="img" font-family="Arial, Helvetica, sans-serif" fill="none" stroke="#0a1326" stroke-width="3.2" stroke-linecap="round" stroke-linejoin="round"><title>A circuit with a cell, switch, ammeter and two resistors all in series</title><rect width="400" height="270" fill="#ffffff" stroke="none"/><path d="M40 70 H360 V200 H40 Z" stroke="#0a1326" stroke-width="3.2" fill="none"/><g transform="translate(100 70) rotate(0) scale(1.6)" stroke="#0a1326" stroke-width="2"><rect x="-12" y="-5" width="24" height="10" fill="#ffffff" stroke="none"/><line x1="-12" y1="-15" x2="-12" y2="15"/><line x1="-5" y1="-8" x2="-5" y2="8"/><line x1="5" y1="-15" x2="5" y2="15"/><line x1="12" y1="-8" x2="12" y2="8"/></g><g transform="translate(190 70) rotate(0) scale(1.6)" stroke="#0a1326" stroke-width="2"><rect x="-14" y="-5" width="28" height="10" fill="#ffffff" stroke="none"/><circle cx="-14" cy="0" r="2.6" fill="#0a1326"/><circle cx="14" cy="0" r="2.6" fill="#0a1326"/><line x1="-14" y1="0" x2="12" y2="-13"/></g><g transform="translate(290 70) rotate(0) scale(1.6)" stroke="#0b7fa3" stroke-width="2"><rect x="-12" y="-5" width="24" height="10" fill="#ffffff" stroke="none"/><circle r="12"/></g><text x="290" y="77" text-anchor="middle" font-size="21" font-weight="700" fill="#0b7fa3" stroke="none">A</text><g transform="translate(145 200) rotate(0) scale(1.6)" stroke="#0b7fa3" stroke-width="2"><rect x="-20" y="-5" width="40" height="10" fill="#ffffff" stroke="none"/><rect x="-20" y="-8" width="40" height="16"/></g><g transform="translate(255 200) rotate(0) scale(1.6)" stroke="#0b7fa3" stroke-width="2"><rect x="-20" y="-5" width="40" height="10" fill="#ffffff" stroke="none"/><rect x="-20" y="-8" width="40" height="16"/></g><text x="145" y="234" text-anchor="middle" font-size="17" font-weight="700" fill="#0a1326" stroke="none">R<tspan dy="0.3em" font-size="70%">1</tspan></text><text x="255" y="234" text-anchor="middle" font-size="17" font-weight="700" fill="#0a1326" stroke="none">R<tspan dy="0.3em" font-size="70%">2</tspan></text></svg>
