<svg xmlns="http://www.w3.org/2000/svg" viewBox="0 0 400 270" width="400" height="270" role="img" font-family="Arial, Helvetica, sans-serif" fill="none" stroke="#0a1326" stroke-width="3.2" stroke-linecap="round" stroke-linejoin="round"><title>A graph of current against potential difference for a filament lamp, an S-shaped curve through the origin in both directions</title><rect width="400" height="270" fill="#ffffff" stroke="none"/><line x1="60" y1="140" x2="310" y2="140" stroke="#0a1326" stroke-width="3"/><line x1="185" y1="215" x2="185" y2="60" stroke="#0a1326" stroke-width="3"/><text x="310" y="160" text-anchor="end" font-size="17" font-weight="700" fill="#0a1326" stroke="none">V (V)</text><text x="199" y="67" text-anchor="start" font-size="17" font-weight="700" fill="#0a1326" stroke="none">I (A)</text><path d="M75 205 L88.8 203 L102.5 200 L116.2 195.6 L130 189.2 L143.8 180.4 L157.5 169 L171.2 155.2 L185 140 L198.8 124.8 L212.5 111 L226.2 99.6 L240 90.8 L253.8 84.4 L267.5 80 L281.2 77 L295 75" stroke="#0b7fa3" stroke-width="3.4" fill="none"/><path d="M70.5 200.5 l9 9 M70.5 209.5 l9 -9" stroke="#0a1326" stroke-width="2.4"/><path d="M98 195.5 l9 9 M98 204.5 l9 -9" stroke="#0a1326" stroke-width="2.4"/><path d="M125.5 184.7 l9 9 M125.5 193.7 l9 -9" stroke="#0a1326" stroke-width="2.4"/><path d="M153 164.5 l9 9 M153 173.5 l9 -9" stroke="#0a1326" stroke-width="2.4"/><path d="M180.5 135.5 l9 9 M180.5 144.5 l9 -9" stroke="#0a1326" stroke-width="2.4"/><path d="M208 106.5 l9 9 M208 115.5 l9 -9" stroke="#0a1326" stroke-width="2.4"/><path d="M235.5 86.3 l9 9 M235.5 95.3 l9 -9" stroke="#0a1326" stroke-width="2.4"/><path d="M263 75.5 l9 9 M263 84.5 l9 -9" stroke="#0a1326" stroke-width="2.4"/><path d="M290.5 70.5 l9 9 M290.5 79.5 l9 -9" stroke="#0a1326" stroke-width="2.4"/><text x="200" y="258" text-anchor="middle" font-size="16" font-weight="400" fill="#0a1326" stroke="none">I against V, both directions</text></svg>
