<svg xmlns="http://www.w3.org/2000/svg" viewBox="0 0 400 270" width="400" height="270" role="img" font-family="Arial, Helvetica, sans-serif" fill="none" stroke="#0a1326" stroke-width="3.2" stroke-linecap="round" stroke-linejoin="round"><title>A graph of force against extension for a spring, a straight line through the origin that bends over at higher forces</title><rect width="400" height="270" fill="#ffffff" stroke="none"/><line x1="70" y1="215" x2="70" y2="35" stroke="#0a1326" stroke-width="3"/><line x1="70" y1="215" x2="350" y2="215" stroke="#0a1326" stroke-width="3"/><text x="340" y="239" text-anchor="end" font-size="17" font-weight="700" fill="#0a1326" stroke="none">extension (cm)</text><text x="62" y="29" text-anchor="start" font-size="17" font-weight="700" fill="#0a1326" stroke="none">force (N)</text><line x1="70" y1="215" x2="264.4" y2="92.6" stroke="#0b7fa3" stroke-width="3.4"/><path d="M264.4 92.6 Q289.4 84.1 331.9 73.9" stroke="#0b7fa3" stroke-width="3.4" fill="none"/><path d="M91.4 194.2 l9 9 M91.4 203.2 l9 -9" stroke="#0a1326" stroke-width="2.4"/><path d="M128.4 170.9 l9 9 M128.4 179.9 l9 -9" stroke="#0a1326" stroke-width="2.4"/><path d="M165.4 147.6 l9 9 M165.4 156.6 l9 -9" stroke="#0a1326" stroke-width="2.4"/><path d="M202.3 124.3 l9 9 M202.3 133.3 l9 -9" stroke="#0a1326" stroke-width="2.4"/><path d="M239.3 101 l9 9 M239.3 110 l9 -9" stroke="#0a1326" stroke-width="2.4"/><path d="M276.3 82.4 l9 9 M276.3 91.4 l9 -9" stroke="#0a1326" stroke-width="2.4"/><path d="M313.3 69.6 l9 9 M313.3 78.6 l9 -9" stroke="#0a1326" stroke-width="2.4"/><text x="200" y="258" text-anchor="middle" font-size="16" font-weight="400" fill="#0a1326" stroke="none">force against extension</text></svg>
