<svg xmlns="http://www.w3.org/2000/svg" viewBox="0 0 640 420" width="640" height="420" role="img" font-family="Arial, Helvetica, sans-serif" fill="none" stroke="#0a1326" stroke-width="3.2" stroke-linecap="round" stroke-linejoin="round"><title>Parallel rays pass through a lens and meet at a point on the far side</title><rect width="640" height="420" fill="#ffffff" stroke="none"/><line x1="30" y1="210" x2="610" y2="210" stroke-width="2.5"/><rect x="271" y="50" width="18" height="320" rx="9" fill="#d9f1f7" stroke-width="3"/><text x="280" y="34" text-anchor="middle" font-size="22" font-weight="700" fill="#0a1326" stroke="none" >lens</text><line x1="40" y1="110" x2="280" y2="110" stroke="#0b7fa3" stroke-width="5"/><path d="M184 110 L166 118 L166 102 Z" fill="#0b7fa3" stroke="none"/><line x1="280" y1="110" x2="600" y2="278.4" stroke="#0b7fa3" stroke-width="5"/><path d="M424 185.8 L404.3 184.5 L411.8 170.3 Z" fill="#0b7fa3" stroke="none"/><line x1="40" y1="210" x2="280" y2="210" stroke="#0b7fa3" stroke-width="5"/><path d="M184 210 L166 218 L166 202 Z" fill="#0b7fa3" stroke="none"/><line x1="280" y1="210" x2="600" y2="210" stroke="#0b7fa3" stroke-width="5"/><path d="M424 210 L406 218 L406 202 Z" fill="#0b7fa3" stroke="none"/><line x1="40" y1="310" x2="280" y2="310" stroke="#0b7fa3" stroke-width="5"/><path d="M184 310 L166 318 L166 302 Z" fill="#0b7fa3" stroke="none"/><line x1="280" y1="310" x2="600" y2="141.6" stroke="#0b7fa3" stroke-width="5"/><path d="M424 234.2 L411.8 249.7 L404.3 235.5 Z" fill="#0b7fa3" stroke="none"/></svg>
