<svg xmlns="http://www.w3.org/2000/svg" viewBox="0 0 1050 300" width="1050" height="300" role="img" font-family="Arial, Helvetica, sans-serif" fill="none" stroke="#0a1326" stroke-width="3.2" stroke-linecap="round" stroke-linejoin="round"><title>Five circuit symbols labelled A to E</title><rect width="1050" height="300" fill="#ffffff" stroke="none"/><line x1="17.0" y1="150" x2="193.0" y2="150"/><g transform="translate(105.0 150) scale(2.4)" stroke-width="1.3"><rect x="-14" y="-4" width="28" height="8" fill="#ffffff" stroke="none"/><circle cx="-14" cy="0" r="2.6" fill="#0a1326"/><circle cx="14" cy="0" r="2.6" fill="#0a1326"/><line x1="-14" y1="0" x2="12" y2="-13"/></g><circle cx="105" cy="255" r="21" fill="#ffd23f" stroke="#0a1326" stroke-width="3"/><text x="105" y="264" text-anchor="middle" font-size="26" font-weight="700" fill="#0a1326" stroke="none">A</text><line x1="227.0" y1="150" x2="403.0" y2="150"/><g transform="translate(315.0 150) scale(2.4)" stroke-width="1.3"><rect x="-14" y="-4" width="28" height="8" fill="#ffffff" stroke="none"/><circle cx="-14" cy="0" r="2.6" fill="#0a1326"/><circle cx="14" cy="0" r="2.6" fill="#0a1326"/><line x1="-14" y1="0" x2="14" y2="0"/></g><circle cx="315" cy="255" r="21" fill="#ffd23f" stroke="#0a1326" stroke-width="3"/><text x="315" y="264" text-anchor="middle" font-size="26" font-weight="700" fill="#0a1326" stroke="none">B</text><line x1="437.0" y1="150" x2="613.0" y2="150"/><g transform="translate(525.0 150) scale(2.4)" stroke-width="1.3"><rect x="-3.5" y="-4" width="7.0" height="8" fill="#ffffff" stroke="none"/><line x1="-3.5" y1="-15" x2="-3.5" y2="15"/><line x1="3.5" y1="-8" x2="3.5" y2="8"/></g><circle cx="525" cy="255" r="21" fill="#ffd23f" stroke="#0a1326" stroke-width="3"/><text x="525" y="264" text-anchor="middle" font-size="26" font-weight="700" fill="#0a1326" stroke="none">C</text><line x1="647.0" y1="150" x2="823.0" y2="150"/><g transform="translate(735.0 150) scale(2.4)" stroke-width="1.3"><rect x="-21.5" y="-4" width="43.0" height="8" fill="#ffffff" stroke="none"/><line x1="-21.5" y1="-15" x2="-21.5" y2="15"/><line x1="-14.5" y1="-8" x2="-14.5" y2="8"/><line x1="-10.5" y1="0" x2="-8.6" y2="0"/><line x1="-4.1" y1="0" x2="-2.2" y2="0"/><line x1="2.2" y1="0" x2="4.1" y2="0"/><line x1="8.6" y1="0" x2="10.5" y2="0"/><line x1="14.5" y1="-15" x2="14.5" y2="15"/><line x1="21.5" y1="-8" x2="21.5" y2="8"/></g><circle cx="735" cy="255" r="21" fill="#ffd23f" stroke="#0a1326" stroke-width="3"/><text x="735" y="264" text-anchor="middle" font-size="26" font-weight="700" fill="#0a1326" stroke="none">D</text><line x1="857.0" y1="150" x2="1033.0" y2="150"/><g transform="translate(945.0 150) scale(2.4)" stroke-width="1.3"><rect x="-12" y="-4" width="24" height="8" fill="#ffffff" stroke="none"/><circle r="12"/><line x1="-12" y1="0" x2="12" y2="0"/><path d="M-5.5 -6.8 L-5.5 6.8 L6.2 0 Z"/><line x1="6.2" y1="-6.2" x2="6.2" y2="6.2"/></g><circle cx="945" cy="255" r="21" fill="#ffd23f" stroke="#0a1326" stroke-width="3"/><text x="945" y="264" text-anchor="middle" font-size="26" font-weight="700" fill="#0a1326" stroke="none">E</text></svg>
