<svg xmlns="http://www.w3.org/2000/svg" viewBox="0 0 1050 300" width="1050" height="300" role="img" font-family="Arial, Helvetica, sans-serif" fill="none" stroke="#0a1326" stroke-width="3.2" stroke-linecap="round" stroke-linejoin="round"><title>Five circuit symbols labelled F to J</title><rect width="1050" height="300" fill="#ffffff" stroke="none"/><line x1="17.0" y1="150" x2="193.0" y2="150"/><g transform="translate(105.0 150) scale(2.4)" stroke-width="1.3"><rect x="-20" y="-4" width="40" height="8" fill="#ffffff" stroke="none"/><rect x="-20" y="-8" width="40" height="16"/></g><circle cx="105" cy="255" r="21" fill="#ffd23f" stroke="#0a1326" stroke-width="3"/><text x="105" y="264" text-anchor="middle" font-size="26" font-weight="700" fill="#0a1326" stroke="none">F</text><line x1="227.0" y1="150" x2="403.0" y2="150"/><g transform="translate(315.0 150) scale(2.4)" stroke-width="1.3"><rect x="-20" y="-4" width="40" height="8" fill="#ffffff" stroke="none"/><rect x="-20" y="-8" width="40" height="16"/><line x1="-18" y1="18" x2="16.8" y2="-16.8"/><path d="M23 -23 L19.5 -13.8 L13.8 -19.5 Z" fill="#0a1326" stroke="none"/></g><circle cx="315" cy="255" r="21" fill="#ffd23f" stroke="#0a1326" stroke-width="3"/><text x="315" y="264" text-anchor="middle" font-size="26" font-weight="700" fill="#0a1326" stroke="none">G</text><line x1="437.0" y1="150" x2="613.0" y2="150"/><g transform="translate(525.0 150) scale(2.4)" stroke-width="1.3"><rect x="-12" y="-4" width="24" height="8" fill="#ffffff" stroke="none"/><circle r="12"/><line x1="-12" y1="0" x2="12" y2="0"/><path d="M-5.5 -6.8 L-5.5 6.8 L6.2 0 Z"/><line x1="6.2" y1="-6.2" x2="6.2" y2="6.2"/><line x1="7.8" y1="-12.6" x2="15.4" y2="-19.1"/><path d="M17.8 -21.2 L16 -16.4 L12.8 -20.1 Z" fill="#0a1326" stroke="none"/><line x1="12.2" y1="-8.2" x2="20" y2="-15.1"/><path d="M22.4 -17.2 L20.6 -12.4 L17.4 -16 Z" fill="#0a1326" stroke="none"/></g><circle cx="525" cy="255" r="21" fill="#ffd23f" stroke="#0a1326" stroke-width="3"/><text x="525" y="264" text-anchor="middle" font-size="26" font-weight="700" fill="#0a1326" stroke="none">H</text><line x1="647.0" y1="150" x2="823.0" y2="150"/><g transform="translate(735.0 150) scale(2.4)" stroke-width="1.3"><rect x="-12" y="-4" width="24" height="8" fill="#ffffff" stroke="none"/><circle r="12"/><line x1="-8.5" y1="-8.5" x2="8.5" y2="8.5"/><line x1="-8.5" y1="8.5" x2="8.5" y2="-8.5"/></g><circle cx="735" cy="255" r="21" fill="#ffd23f" stroke="#0a1326" stroke-width="3"/><text x="735" y="264" text-anchor="middle" font-size="26" font-weight="700" fill="#0a1326" stroke="none">I</text><line x1="857.0" y1="150" x2="1033.0" y2="150"/><g transform="translate(945.0 150) scale(2.4)" stroke-width="1.3"><rect x="-20" y="-4" width="40" height="8" fill="#ffffff" stroke="none"/><rect x="-20" y="-7" width="40" height="14"/><line x1="-20" y1="0" x2="20" y2="0"/></g><circle cx="945" cy="255" r="21" fill="#ffd23f" stroke="#0a1326" stroke-width="3"/><text x="945" y="264" text-anchor="middle" font-size="26" font-weight="700" fill="#0a1326" stroke="none">J</text></svg>
