<svg xmlns="http://www.w3.org/2000/svg" viewBox="0 0 560 420" width="560" height="420" role="img" font-family="Arial, Helvetica, sans-serif" fill="none" stroke="#0a1326" stroke-width="3.2" stroke-linecap="round" stroke-linejoin="round"><title>A cell connected to two parallel branches: an ammeter and lamp in one, an open switch and resistor in the other</title><rect width="560" height="420" fill="#ffffff" stroke="none"/><path d="M70 80 H490 V340 H70 Z"/><path d="M70 210 H490"/><g transform="translate(280 80) scale(2.0)" stroke-width="1.6"><rect x="-3.5" y="-4" width="7.0" height="8" fill="#ffffff" stroke="none"/><line x1="-3.5" y1="-15" x2="-3.5" y2="15"/><line x1="3.5" y1="-8" x2="3.5" y2="8"/></g><g transform="translate(190 210) scale(2.0)" stroke-width="1.6"><rect x="-12" y="-4" width="24" height="8" fill="#ffffff" stroke="none"/><circle r="12"/></g><text x="190" y="220.4" text-anchor="middle" font-size="29" font-weight="700" fill="#0a1326" stroke="none" >A</text><g transform="translate(370 210) scale(2.0)" stroke-width="1.6"><rect x="-12" y="-4" width="24" height="8" fill="#ffffff" stroke="none"/><circle r="12"/><line x1="-8.5" y1="-8.5" x2="8.5" y2="8.5"/><line x1="-8.5" y1="8.5" x2="8.5" y2="-8.5"/></g><g transform="translate(190 340) scale(2.0)" stroke-width="1.6"><rect x="-14" y="-4" width="28" height="8" fill="#ffffff" stroke="none"/><circle cx="-14" cy="0" r="2.6" fill="#0a1326"/><circle cx="14" cy="0" r="2.6" fill="#0a1326"/><line x1="-14" y1="0" x2="12" y2="-13"/></g><g transform="translate(370 340) scale(2.0)" stroke-width="1.6"><rect x="-20" y="-4" width="40" height="8" fill="#ffffff" stroke="none"/><rect x="-20" y="-8" width="40" height="16"/></g><circle cx="70" cy="210" r="6" fill="#0a1326" stroke="none"/><circle cx="490" cy="210" r="6" fill="#0a1326" stroke="none"/></svg>
